<svg width="880" height="256" viewBox="0 0 880 256" fill="none" xmlns="http://www.w3.org/2000/svg">
<g clip-path="url(#clip0)">
<rect width="880" height="256" fill="white"/>
<rect x="283.887" y="8" width="62" height="208" transform="rotate(26.2166 283.887 8)" fill="#F9DE6E"/>
<path d="M204.153 240.549L196.264 188.833L250.223 215.763L204.153 240.549Z" fill="#F9DE6E"/>
<path d="M33 133.394C65.7054 162.901 112.644 157.319 132.025 150.839C186.533 110.168 213.788 133.893 220.602 150.839C277.654 118.94 309.179 137.548 317.809 150.839C363.233 120.535 358.691 100 358.691 100C380.858 126.715 395.182 145.024 399.573 150.839L440 112.959" stroke="#00A752" stroke-width="25"/>
<path d="M471.456 138.04V143.872H536.832V138.04H471.456ZM579.456 139.552V155.68H561.816V139.552H579.456ZM584.712 160.576V134.656H556.632V165.688H561.816V160.576H584.712ZM562.896 119.248C564.12 116.296 565.344 113.272 566.352 110.176L560.88 108.808C557.064 120.904 550.656 132.424 542.88 139.552C544.248 140.488 546.552 142.288 547.56 143.296C552.312 138.4 556.704 131.848 560.376 124.504H600.264C599.256 154.096 598.032 165.688 595.44 168.208C594.576 169.144 593.64 169.36 592.056 169.36C590.184 169.36 585.216 169.36 579.816 168.928C580.752 170.512 581.544 172.816 581.616 174.472C586.368 174.76 591.336 174.904 594.144 174.616C596.952 174.328 598.608 173.68 600.408 171.448C603.504 167.776 604.584 155.896 605.736 122.128C605.736 121.408 605.808 119.248 605.808 119.248H562.896ZM632.88 117.736C631.8 115.216 629.496 111.472 627.408 108.52L623.304 110.608C625.176 113.56 627.552 117.592 628.632 120.184L632.88 117.736ZM634.824 153.808V165.688H622.8V153.808H634.824ZM639.576 149.344H618.12V173.536H622.8V170.152H639.576V149.344ZM618.12 144.016H639V139.768H618.12V144.016ZM639 130.408H618.12V134.656H639V130.408ZM615.168 125.368H641.448V120.976H615.168V125.368ZM671.76 166.768H651.096V152.728H671.76V166.768ZM680.76 135.88V130.768H664.056V117.016C668.88 116.008 673.488 114.856 677.16 113.488L673.704 109.24C666.792 111.904 654.408 114.208 643.896 115.504C644.472 116.728 645.048 118.6 645.264 119.824C649.656 119.32 654.408 118.672 659.088 117.952V130.768H643.464V135.88H659.088V147.832H646.2V174.544H651.096V171.664H671.76V174.256H676.944V147.832H664.056V135.88H680.76ZM702.36 163.744V143.656H738.072V163.744H702.36ZM738.072 118.96V138.4H702.36V118.96H738.072ZM696.96 113.704V173.68H702.36V169H738.072V173.392H743.688V113.704H696.96ZM777.96 117.016C776.808 114.64 774.288 110.968 771.768 108.376L767.664 110.608C769.968 113.272 772.488 117.088 773.568 119.536L777.96 117.016ZM779.688 154.168V166.192H767.088V154.168H779.688ZM784.512 149.776H762.336V173.968H767.088V170.656H784.512V149.776ZM761.4 144.304H785.664V139.984H761.4V144.304ZM762.768 129.976V134.152H784.296V129.976H762.768ZM759.312 124.36H787.968V119.968H759.312V124.36ZM801.792 167.992C797.904 167.992 797.112 167.416 797.112 164.608V141.208H815.184V145.024H820.44V112.696H790.92V117.808H815.184V136.096H791.856V164.608C791.856 171.376 794.016 173.032 801.36 173.032H815.472C822.528 173.032 824.184 169.936 824.976 158.272C823.392 157.984 821.232 157.048 819.936 156.112C819.504 166.12 818.856 167.992 815.112 167.992H801.792Z" fill="#00A752"/>
</g>
<defs>
<clipPath id="clip0">
<rect width="880" height="256" fill="white"/>
</clipPath>
</defs>
</svg>
