<svg width="725" height="256" viewBox="0 0 725 256" fill="none" xmlns="http://www.w3.org/2000/svg">
<rect x="264.887" width="62" height="208" transform="rotate(26.2166 264.887 0)" fill="#F9DE6E"/>
<path d="M185.153 232.549L177.264 180.833L231.223 207.763L185.153 232.549Z" fill="#F9DE6E"/>
<path d="M33 133.394C65.7054 162.901 112.644 157.319 132.025 150.839C186.533 110.168 213.788 133.893 220.602 150.839C277.654 118.94 309.179 137.548 317.809 150.839C363.233 120.535 358.691 100 358.691 100C380.858 126.715 395.182 145.024 399.573 150.839L440 112.959" stroke="#00A752" stroke-width="25"/>
<path d="M469.456 69.04V74.872H534.832V69.04H469.456ZM577.456 70.552V86.68H559.816V70.552H577.456ZM582.712 91.576V65.656H554.632V96.688H559.816V91.576H582.712ZM560.896 50.248C562.12 47.296 563.344 44.272 564.352 41.176L558.88 39.808C555.064 51.904 548.656 63.424 540.88 70.552C542.248 71.488 544.552 73.288 545.56 74.296C550.312 69.4 554.704 62.848 558.376 55.504H598.264C597.256 85.096 596.032 96.688 593.44 99.208C592.576 100.144 591.64 100.36 590.056 100.36C588.184 100.36 583.216 100.36 577.816 99.928C578.752 101.512 579.544 103.816 579.616 105.472C584.368 105.76 589.336 105.904 592.144 105.616C594.952 105.328 596.608 104.68 598.408 102.448C601.504 98.776 602.584 86.896 603.736 53.128C603.736 52.408 603.808 50.248 603.808 50.248H560.896ZM630.952 48.736C629.872 46.216 627.496 42.472 625.408 39.52L621.304 41.608C623.248 44.56 625.552 48.592 626.632 51.184L630.952 48.736ZM632.824 84.808V96.688H620.8V84.808H632.824ZM637.576 80.344H616.12V104.536H620.8V101.152H637.576V80.344ZM616.12 75.016H637V70.768H616.12V75.016ZM637 61.408H616.12V65.656H637V61.408ZM613.168 56.368H639.448V51.976H613.168V56.368ZM669.76 97.768H649.096V83.728H669.76V97.768ZM678.76 66.88V61.768H662.056V48.016C666.88 47.008 671.488 45.856 675.16 44.488L671.704 40.24C664.792 42.904 652.408 45.208 641.896 46.504C642.472 47.728 643.12 49.6 643.264 50.824C647.656 50.32 652.408 49.672 657.088 48.952V61.768H641.464V66.88H657.088V78.832H644.2V105.544H649.096V102.664H669.76V105.256H674.944V78.832H662.056V66.88H678.76ZM520.36 201.744V181.656H556.072V201.744H520.36ZM556.072 156.96V176.4H520.36V156.96H556.072ZM514.96 151.704V211.68H520.36V207H556.072V211.392H561.688V151.704H514.96ZM595.96 155.016C594.808 152.64 592.288 148.968 589.768 146.376L585.664 148.608C587.968 151.272 590.488 155.088 591.568 157.536L595.96 155.016ZM597.688 192.168V204.192H585.088V192.168H597.688ZM602.512 187.776H580.336V211.968H585.088V208.656H602.512V187.776ZM579.4 182.304H603.664V177.984H579.4V182.304ZM580.768 167.976V172.152H602.296V167.976H580.768ZM577.312 162.36H605.968V157.968H577.312V162.36ZM619.792 205.992C615.904 205.992 615.112 205.416 615.112 202.608V179.208H633.184V183.024H638.44V150.696H608.92V155.808H633.184V174.096H609.856V202.608C609.856 209.376 612.016 211.032 619.36 211.032H633.472C640.528 211.032 642.184 207.936 642.976 196.272C641.392 195.984 639.232 195.048 637.936 194.112C637.504 204.12 636.856 205.992 633.112 205.992H619.792Z" fill="#00A752"/>
</svg>
